<svg xmlns="http://www.w3.org/2000/svg" xmlns:xlink="http://www.w3.org/1999/xlink" width="512" height="512"><linearGradient id="b" x1="256" x2="256" y1="91" y2="421" gradientUnits="userSpaceOnUse"><stop offset="0" stop-color="#96d1f3"/><stop offset="1" stop-color="#ccfff4"/></linearGradient><linearGradient id="a" gradientUnits="userSpaceOnUse"><stop offset="0" stop-color="#a8abff"/><stop offset="1" stop-color="#fac8ff"/></linearGradient><linearGradient xlink:href="#a" id="c" x1="81.5" x2="81.5" y1="32.5" y2="132.5"/><linearGradient xlink:href="#a" id="d" x1="431.5" x2="431.5" y1="32.5" y2="132.5"/><linearGradient xlink:href="#a" id="e" x1="81.5" x2="81.5" y1="380.5" y2="480.5"/><linearGradient xlink:href="#a" id="f" x1="431.5" x2="431.5" y1="380.5" y2="480.5"/><linearGradient id="g" x1="256" x2="256" y1="0" y2="512" gradientUnits="userSpaceOnUse"><stop offset="0" stop-color="#174fa3"/><stop offset="1" stop-color="#b044af"/></linearGradient><circle cx="256" cy="256" r="165" fill="url(#b)"/><circle cx="81.5" cy="82.5" r="50" fill="url(#c)"/><circle cx="431.5" cy="82.5" r="50" fill="url(#d)"/><circle cx="81.5" cy="430.5" r="50" fill="url(#e)"/><circle cx="431.5" cy="430.5" r="50" fill="url(#f)"/><g fill="#fff"><circle cx="81.5" cy="82.5" r="15"/><circle cx="81.5" cy="430.5" r="15"/><circle cx="431.5" cy="82.5" r="15"/><circle cx="431.5" cy="430.5" r="15"/></g><path fill="url(#g)" d="m148.15 40.335-6.72-13.4a254.14 254.14 0 0 1 14.022-6.5l5.89 13.796a242.566 242.566 0 0 0-13.2 6.114zm221.906-13.67a253.3 253.3 0 0 0-14.038-6.467l-5.856 13.8c4.438 1.882 8.88 3.93 13.205 6.083zM256 15c27.715 0 54.836 4.623 80.61 13.74l5.003-14.14C314.228 4.912 285.424 0 256 0c-29.625 0-58.6 4.978-86.155 14.794l5.036 14.13C200.806 19.684 228.098 15 256 15zM142.006 485.363a253.11 253.11 0 0 0 14.04 6.465l5.854-13.81a239.547 239.547 0 0 1-13.206-6.08zM256 497c-27.697 0-54.797-4.615-80.548-13.72l-5 14.143C197.813 507.096 226.596 512 256 512c29.645 0 58.653-4.985 86.22-14.817l-5.04-14.128C311.236 492.308 283.923 497 256 497zm94.718-19.246 5.893 13.794a253.886 253.886 0 0 0 14.02-6.503l-6.724-13.408a240.1 240.1 0 0 1-13.19 6.117zM40.063 363.306a237.932 237.932 0 0 1-5.508-11.867l-13.774 5.94a253.802 253.802 0 0 0 5.856 12.615zM15 256c0-27.433 4.53-54.284 13.462-79.805l-14.158-4.955C4.813 198.358 0 226.875 0 256c0 29.938 5.08 59.21 15.098 87.005l14.11-5.086C19.78 311.76 15 284.2 15 256zm24.723-106.596-13.446-6.648c-2.274 4.6-4.435 9.33-6.423 14.06l13.828 5.812a238.945 238.945 0 0 1 6.04-13.223zm432.824.53a238.58 238.58 0 0 1 6.003 13.241l13.845-5.773a254.94 254.94 0 0 0-6.382-14.077zm25.36 21.906-14.17 4.918C492.537 202.122 497 228.782 497 256c0 28.41-4.85 56.16-14.413 82.48l14.1 5.123C506.848 315.637 512 286.163 512 256c0-28.896-4.743-57.21-14.094-84.16zm-25.708 190.932 13.443 6.654a255.72 255.72 0 0 0 5.324-11.465l-13.76-5.976a238.088 238.088 0 0 1-5.008 10.787zM428.5 256c0 95.117-77.383 172.5-172.5 172.5S83.5 351.117 83.5 256 160.883 83.5 256 83.5 428.5 160.883 428.5 256zM150.064 139.55a157.978 157.978 0 0 0 24.644 18.418c3.076-7.854 6.54-15.303 10.378-22.262 6.373-11.556 13.527-21.33 21.272-29.183-21.087 7.02-40.21 18.38-56.294 33.027zM98.683 248.5h58.912c.648-27.03 4.79-52.967 12.04-76.104a172.89 172.89 0 0 1-30.181-22.23c-23.863 26.254-38.993 60.577-40.772 98.334zm43.828 116.593a172.387 172.387 0 0 1 28.8-20.41c-8.28-24.393-13-52.156-13.706-81.183H98.683c1.854 39.34 18.208 74.95 43.828 101.592zm63.847 40.384c-7.745-7.854-14.898-17.627-21.272-29.183-3.038-5.508-5.836-11.327-8.4-17.406a157.722 157.722 0 0 0-23.227 16.56c15.356 13.2 33.275 23.495 52.898 30.028zm42.142-67.8c-20.44.96-40.237 5.837-58.472 14.254 2.486 6 5.217 11.725 8.193 17.12 13.955 25.303 31.582 40.562 50.28 43.794zm0-74.177h-75.903c.667 26.597 4.873 51.974 12.208 74.317 19.9-9.017 41.452-14.196 63.695-15.15zm0-68.17c-22.922-.974-45.036-6.403-65.347-15.876-6.313 21.03-9.942 44.517-10.557 69.045H248.5zm0-96.176c-18.697 3.232-36.324 18.492-50.28 43.794-3.805 6.9-7.213 14.334-10.213 22.204 18.756 8.99 39.238 14.18 60.492 15.168zm57.142 7.368c7.745 7.854 14.898 17.627 21.272 29.183 3.838 6.96 7.302 14.408 10.378 22.262a158.04 158.04 0 0 0 24.644-18.418c-16.085-14.646-35.207-26.006-56.294-33.027zm-42.142 73.8c21.254-.99 41.736-6.18 60.492-15.168-3-7.87-6.408-15.305-10.213-22.204-13.955-25.303-31.582-40.562-50.28-43.794zm0 68.178h75.903c-.615-24.528-4.243-48.014-10.557-69.045-20.31 9.473-42.425 14.902-65.347 15.876v53.17zm0 74.168c22.243.953 43.805 6.132 63.695 15.15 7.335-22.344 11.542-47.72 12.208-74.317H263.5zm50.28 46.383c2.975-5.395 5.707-11.12 8.193-17.12-18.235-8.417-38.032-13.295-58.472-14.254v75.168c18.697-3.232 36.324-18.49 50.28-43.794zm44.76 6.398a157.595 157.595 0 0 0-23.227-16.56c-2.563 6.08-5.36 11.898-8.4 17.406-6.373 11.556-13.527 21.33-21.272 29.183 19.624-6.533 37.543-16.828 52.898-30.028zm54.778-111.95h-58.912c-.696 29.028-5.427 56.8-13.706 81.183a172.682 172.682 0 0 1 28.8 20.41c25.62-26.64 41.974-62.25 43.828-101.592zm0-15c-1.78-37.757-16.9-72.08-40.773-98.334a172.884 172.884 0 0 1-30.18 22.23c7.252 23.137 11.393 49.074 12.04 76.104zM24 82.5C24 50.794 49.794 25 81.5 25S139 50.794 139 82.5 113.206 140 81.5 140 24 114.206 24 82.5zm15 0c0 23.435 19.065 42.5 42.5 42.5S124 105.935 124 82.5 104.935 40 81.5 40 39 59.065 39 82.5zm335 0c0-31.706 25.794-57.5 57.5-57.5S489 50.794 489 82.5 463.206 140 431.5 140 374 114.206 374 82.5zm15 0c0 23.435 19.065 42.5 42.5 42.5S474 105.935 474 82.5 454.935 40 431.5 40 389 59.065 389 82.5zm-250 348c0 31.706-25.794 57.5-57.5 57.5S24 462.206 24 430.5 49.794 373 81.5 373s57.5 25.794 57.5 57.5zm-15 0c0-23.435-19.065-42.5-42.5-42.5S39 407.065 39 430.5 58.065 473 81.5 473s42.5-19.065 42.5-42.5zm365 0c0 31.706-25.794 57.5-57.5 57.5S374 462.206 374 430.5s25.794-57.5 57.5-57.5 57.5 25.794 57.5 57.5zm-15 0c0-23.435-19.065-42.5-42.5-42.5S389 407.065 389 430.5s19.065 42.5 42.5 42.5 42.5-19.065 42.5-42.5zM59 82.5C59 70.093 69.093 60 81.5 60S104 70.093 104 82.5 93.907 105 81.5 105 59 94.907 59 82.5zm15 0a7.51 7.51 0 0 0 7.5 7.5 7.51 7.51 0 0 0 7.5-7.5 7.51 7.51 0 0 0-7.5-7.5 7.51 7.51 0 0 0-7.5 7.5zm30 348c0 12.407-10.093 22.5-22.5 22.5S59 442.907 59 430.5 69.093 408 81.5 408s22.5 10.093 22.5 22.5zm-15 0a7.51 7.51 0 0 0-7.5-7.5 7.51 7.51 0 0 0-7.5 7.5 7.51 7.51 0 0 0 7.5 7.5 7.51 7.51 0 0 0 7.5-7.5zm320-348c0-12.407 10.093-22.5 22.5-22.5S454 70.093 454 82.5 443.907 105 431.5 105 409 94.907 409 82.5zm15 0a7.51 7.51 0 0 0 7.5 7.5 7.51 7.51 0 0 0 7.5-7.5 7.51 7.51 0 0 0-7.5-7.5 7.51 7.51 0 0 0-7.5 7.5zm30 348c0 12.407-10.093 22.5-22.5 22.5S409 442.907 409 430.5s10.093-22.5 22.5-22.5 22.5 10.093 22.5 22.5zm-15 0a7.51 7.51 0 0 0-7.5-7.5 7.51 7.51 0 0 0-7.5 7.5 7.51 7.51 0 0 0 7.5 7.5 7.51 7.51 0 0 0 7.5-7.5z"/></svg>