<svg xmlns="http://www.w3.org/2000/svg" width="512" height="512" viewBox="0 0 511 511"><linearGradient id="a" x1="255.5" x2="255.5" y1="30.5" y2="420.5" gradientUnits="userSpaceOnUse"><stop offset="0" stop-color="#96d1f3"/><stop offset="1" stop-color="#ccfff4"/></linearGradient><linearGradient id="b" x1="468.5" x2="468.5" y1="70.5" y2="480.5" gradientUnits="userSpaceOnUse"><stop offset="0" stop-color="#a8abff"/><stop offset="1" stop-color="#fac8ff"/></linearGradient><linearGradient id="c" x1="255.5" x2="255.5" y1="23" y2="488" gradientUnits="userSpaceOnUse"><stop offset="0" stop-color="#174fa3"/><stop offset="1" stop-color="#b044af"/></linearGradient><path fill="url(#a)" d="M463.5 30.5H7.5v390h496v-350c0-22.09-17.91-40-40-40z"/><path fill="url(#b)" d="M463.5 110.5h-30v370h30c22.09 0 40-17.91 40-40v-370c0 22.09-17.91 40-40 40z"/><g fill="#fff"><path d="M45.5 98.5h100v90h-100z"/><circle cx="221.5" cy="315.5" r="75"/><path d="M397.5 188.5h-100v-22c0-21.01 12.966-38.983 31.328-46.382A24.9 24.9 0 0 1 322.5 103.5v-10c0-13.807 11.193-25 25-25s25 11.193 25 25v10c0 6.38-2.394 12.2-6.328 16.618 18.362 7.4 31.328 25.37 31.328 46.382z"/></g><path fill="url(#c)" d="M463.5 23H0v405h426v60h37.5c26.19 0 47.5-21.31 47.5-47.5v-370c0-26.19-21.31-47.5-47.5-47.5zM496 440.5c0 17.92-14.58 32.5-32.5 32.5H441V118c14.432-1.52 35.598 5.34 55-12.9zM463.5 103H426v310H15V38h448.5c17.92 0 32.5 14.58 32.5 32.5S481.42 103 463.5 103zm-86.504 14.123c4.362-9.407 2.607-16.465 3.004-23.623 0-17.92-14.58-32.5-32.5-32.5S315 75.58 315 93.5c.398 7.168-1.33 14.28 3.004 23.623A57.192 57.192 0 0 0 298.694 136H153V91h-30v-4.5C123 71.337 110.664 59 95.5 59S68 71.337 68 86.5V91H38v105h115v-45h61v82.356c-41.987 3.804-75 39.183-75 82.144 0 45.5 37.01 82.5 82.5 82.5s82.5-37 82.5-82.5c0-42.96-33.013-78.34-75-82.144V151h63.106c-3.353 12.092-1.632 19.06-2.106 45h115c-2.244-14.323 9.91-56.333-28.004-78.877zM83 86.5C83 79.607 88.607 74 95.5 74S108 79.607 108 86.5V91H83zm55 94.5H53v-75h15v20.5h15V106h25v20.5h15V106h15zm151 134.5c0 37.22-30.28 67.5-67.5 67.5S154 352.72 154 315.5s30.28-67.5 67.5-67.5 67.5 30.28 67.5 67.5zm41-222c0-9.65 7.85-17.5 17.5-17.5S365 83.85 365 93.5v10c0 9.65-7.85 17.5-17.5 17.5s-17.5-7.85-17.5-17.5zm60 87.5h-85c1.027-5.29-6.163-36.7 22.424-51.97 11.7 9.228 28.272 9.362 40.15 0C396.014 144.2 389.08 176.26 390 181zm-161 80.5V276h17.5v15h-34a8.51 8.51 0 0 0-8.5 8.5 8.51 8.51 0 0 0 8.5 8.5h18c12.958 0 23.5 10.542 23.5 23.5S243.458 355 230.5 355H229v14.5h-15V355h-17.5v-15h34a8.51 8.51 0 0 0 8.5-8.5 8.51 8.51 0 0 0-8.5-8.5h-18c-12.958 0-23.5-10.542-23.5-23.5s10.542-23.5 23.5-23.5h1.5v-14.5z"/></svg>