<svg xmlns="http://www.w3.org/2000/svg" xmlns:xlink="http://www.w3.org/1999/xlink" width="512" height="512" viewBox="0 0 511 511"><linearGradient id="b" x1="255.5" x2="255.5" y1="166.5" y2="336.5" gradientUnits="userSpaceOnUse"><stop offset="0" stop-color="#a8abff"/><stop offset="1" stop-color="#fac8ff"/></linearGradient><linearGradient id="a" gradientUnits="userSpaceOnUse"><stop offset="0" stop-color="#96d1f3"/><stop offset="1" stop-color="#ccfff4"/></linearGradient><linearGradient xlink:href="#a" id="c" x1="57.5" x2="57.5" y1="47.5" y2="147.5"/><linearGradient xlink:href="#a" id="d" x1="57.5" x2="57.5" y1="363.5" y2="463.5"/><linearGradient xlink:href="#a" id="e" x1="453.5" x2="453.5" y1="47.5" y2="147.5"/><linearGradient xlink:href="#a" id="f" x1="453.5" x2="453.5" y1="363.5" y2="463.5"/><linearGradient xlink:href="#a" id="g" x1="255.5" x2="255.5" y1="7.5" y2="107.5"/><linearGradient xlink:href="#a" id="h" x1="255.5" x2="255.5" y1="403.5" y2="503.5"/><linearGradient id="i" x1="255.5" x2="255.5" y1="0" y2="511" gradientUnits="userSpaceOnUse"><stop offset="0" stop-color="#174fa3"/><stop offset="1" stop-color="#b044af"/></linearGradient><path fill="url(#b)" d="M305.5 196.5v-30h-100v60h-90v110h280v-140z"/><circle cx="57.5" cy="97.5" r="50" fill="url(#c)"/><circle cx="57.5" cy="413.5" r="50" fill="url(#d)"/><circle cx="453.5" cy="97.5" r="50" fill="url(#e)"/><circle cx="453.5" cy="413.5" r="50" fill="url(#f)"/><circle cx="255.5" cy="57.5" r="50" fill="url(#g)"/><circle cx="255.5" cy="453.5" r="50" fill="url(#h)"/><path fill="url(#i)" d="M233 199h15v15h-15zm30 15h15v-15h-15zm0 30h15v-15h-15zm-30 0h15v-15h-15zm30 30h15v-15h-15zm-30 0h15v-15h-15zm0 30h15v-15h-15zm30 0h15v-15h-15zm-110-45h-15v15h15zm30 0h-15v15h15zm-30 30h-15v15h15zm30 0h-15v15h15zm175-15h15v-15h-15zm-30 0h15v-15h-15zm30-30h15v-15h-15zm-30 0h15v-15h-15zm0 60h15v-15h-15zm30 0h15v-15h-15zm153 109.5c0 31.706-25.794 57.5-57.5 57.5-28.033 0-51.43-20.17-56.478-46.756l-84.263 34.393C310.15 487.944 285.474 511 255.5 511s-54.65-23.056-57.26-52.363l-84.263-34.393C108.93 450.83 85.533 471 57.5 471 25.794 471 0 445.206 0 413.5S25.794 356 57.5 356c29.973 0 54.65 23.056 57.26 52.363l84.263 34.393c4.6-24.175 24.354-43.027 48.978-46.25V344H90.5v-15H108V219h90v-60h50v-44.505c-24.624-3.224-44.388-22.076-48.978-46.25l-84.263 34.393C112.15 131.944 87.473 155 57.5 155 25.794 155 0 129.206 0 97.5S25.794 40 57.5 40c28.033 0 51.43 20.17 56.478 46.756l84.263-34.393C200.85 23.056 225.527 0 255.5 0s54.65 23.056 57.26 52.363l84.263 34.393C402.07 60.17 425.467 40 453.5 40c31.706 0 57.5 25.794 57.5 57.5S485.206 155 453.5 155c-29.974 0-54.65-23.056-57.26-52.363l-84.263-34.393c-4.6 24.175-24.354 43.027-48.978 46.25V159h50v30h90v140h17.5v15H263v52.505c24.625 3.224 44.39 22.076 48.978 46.25l84.263-34.393C398.85 379.056 423.526 356 453.5 356c31.706 0 57.5 25.794 57.5 57.5zm-100-316c0 23.435 19.065 42.5 42.5 42.5S496 120.935 496 97.5 476.935 55 453.5 55 411 74.065 411 97.5zm-311 0C100 74.065 80.935 55 57.5 55S15 74.065 15 97.5 34.065 140 57.5 140 100 120.935 100 97.5zM198 234h-75v95h75zm-98 179.5c0-23.435-19.065-42.5-42.5-42.5S15 390.065 15 413.5 34.065 456 57.5 456s42.5-19.065 42.5-42.5zM313 329h75V204h-75zm-57.5-229c23.435 0 42.5-19.065 42.5-42.5S278.935 15 255.5 15 213 34.065 213 57.5s19.065 42.5 42.5 42.5zM298 329V174h-85v155zm0 124.5c0-23.435-19.065-42.5-42.5-42.5S213 430.065 213 453.5s19.065 42.5 42.5 42.5 42.5-19.065 42.5-42.5zm198-40c0-23.435-19.065-42.5-42.5-42.5S411 390.065 411 413.5s19.065 42.5 42.5 42.5 42.5-19.065 42.5-42.5z"/></svg>