<svg xmlns="http://www.w3.org/2000/svg" xmlns:xlink="http://www.w3.org/1999/xlink" width="512" height="512" viewBox="0 0 511 511"><linearGradient id="a" gradientUnits="userSpaceOnUse"><stop offset="0" stop-color="#96d1f3"/><stop offset="1" stop-color="#ccfff4"/></linearGradient><linearGradient xlink:href="#a" id="c" x1="255.5" x2="255.5" y1="213.5" y2="503.5"/><linearGradient id="b" gradientUnits="userSpaceOnUse"><stop offset="0" stop-color="#a8abff"/><stop offset="1" stop-color="#fac8ff"/></linearGradient><linearGradient xlink:href="#b" id="d" x1="255.5" x2="255.5" y1="308.5" y2="468.5"/><linearGradient xlink:href="#b" id="e" x1="255.5" x2="255.5" y1="41.5" y2="201.5"/><linearGradient xlink:href="#a" id="f" x1="400.5" x2="400.5" y1="7.5" y2="77.5"/><linearGradient id="g" x1="255.5" x2="255.5" y1="0" y2="511" gradientUnits="userSpaceOnUse"><stop offset="0" stop-color="#174fa3"/><stop offset="1" stop-color="#b044af"/></linearGradient><path fill="#fff" d="M365.5 7.5h-290v266h360v-196z"/><path fill="url(#c)" d="M435.5 503.5h-360c-16.57 0-30-13.43-30-30v-230c0-16.57 13.43-30 30-30h101a50 50 0 0 1 31.235 10.957l47.61 38.087a50 50 0 0 0 31.235 10.957H435.5c16.57 0 30 13.43 30 30v170c0 16.568-13.43 30-30 30z"/><circle cx="255.5" cy="388.5" r="80" fill="url(#d)"/><circle cx="255.5" cy="121.5" r="80" fill="url(#e)"/><path fill="url(#f)" d="M435.5 77.5h-70v-70z"/><path fill="url(#g)" d="M443 266.755V74.394L368.606 0H68v206.755C50.904 210.24 38 225.4 38 243.5v230c0 20.678 16.822 37.5 37.5 37.5h360c20.678 0 37.5-16.822 37.5-37.5v-170c0-18.1-12.904-33.26-30-36.745zm-70-241.15L417.394 70H373zM83 15h275v70h70v181H286.578a42.66 42.66 0 0 1-26.55-9.313L212.42 218.6c-10.156-8.126-22.913-12.6-35.92-12.6H83zm375 458.5c0 12.406-10.093 22.5-22.5 22.5h-360C63.093 496 53 485.906 53 473.5v-230c0-12.406 10.093-22.5 22.5-22.5h101a42.66 42.66 0 0 1 26.55 9.313l47.608 38.086a57.704 57.704 0 0 0 35.92 12.6H435.5c12.407 0 22.5 10.094 22.5 22.5zm-170-69c0 12.958-10.542 23.5-23.5 23.5H263v14.5h-15V428h-17.5v-15h34a8.51 8.51 0 0 0 8.5-8.5 8.51 8.51 0 0 0-8.5-8.5h-18c-12.958 0-23.5-10.542-23.5-23.5s10.542-23.5 23.5-23.5h1.5v-14.5h15V349h17.5v15h-34a8.51 8.51 0 0 0-8.5 8.5 8.51 8.51 0 0 0 8.5 8.5h18c12.958 0 23.5 10.542 23.5 23.5zM255.5 301c-48.248 0-87.5 39.252-87.5 87.5s39.252 87.5 87.5 87.5 87.5-39.252 87.5-87.5-39.252-87.5-87.5-87.5zm0 160c-39.977 0-72.5-32.523-72.5-72.5s32.523-72.5 72.5-72.5 72.5 32.523 72.5 72.5-32.523 72.5-72.5 72.5zm0-252c48.248 0 87.5-39.252 87.5-87.5S303.748 34 255.5 34 168 73.252 168 121.5s39.252 87.5 87.5 87.5zm0-160c39.977 0 72.5 32.523 72.5 72.5S295.477 194 255.5 194 183 161.477 183 121.5 215.523 49 255.5 49zm-18 120.106-37.303-37.303 10.606-10.607 26.697 26.697 58.697-58.697 10.606 10.607z"/></svg>