<svg xmlns="http://www.w3.org/2000/svg" width="512" height="512"><linearGradient id="a" x1="255.993" x2="255.993" y1="66" y2="384" gradientUnits="userSpaceOnUse"><stop offset="0" stop-color="#a8abff"/><stop offset="1" stop-color="#fac8ff"/></linearGradient><linearGradient id="b" x1="256" x2="256" y1="0" y2="512" gradientUnits="userSpaceOnUse"><stop offset="0" stop-color="#174fa3"/><stop offset="1" stop-color="#b044af"/></linearGradient><path fill="url(#a)" d="M375.47 301.514 366.04 295v-54.538c0-48.464-32.983-90.708-80-102.462l20-72h-100l20 72c-47.017 11.754-80 54-80 102.462V295l-9.468 6.52a45.23 45.23 0 0 0-19.579 37.252c0 24.98 20.25 45.23 45.23 45.23h187.543c24.98 0 45.23-20.25 45.23-45.23v-.044a45.23 45.23 0 0 0-19.524-37.213z"/><path fill="url(#b)" d="M138.54 240.462v50.597l-6.22 4.283a52.72 52.72 0 0 0-22.826 43.43c0 29.074 23.654 52.73 52.73 52.73h187.543c29.074 0 52.73-23.654 52.73-52.772 0-17.32-8.51-33.54-22.76-43.384l-6.193-4.278v-50.604c0-49.42-31.82-92.63-78.282-107.622l20.65-74.34H196.173l20.65 74.34c-46.463 14.99-78.283 58.2-78.283 107.62zM215.907 73.5h80.266l-15.833 57h-48.6zm11.13 72h58.003c43.316 11.223 73.5 50.142 73.5 94.962v58.473l12.668 8.75a37.75 37.75 0 0 1 16.285 31.086c0 20.804-16.925 37.73-37.73 37.73H162.222c-20.804 0-37.73-16.925-37.73-37.73a37.72 37.72 0 0 1 16.333-31.075l12.714-8.755v-58.48c0-44.82 30.183-83.74 73.498-94.963zm-25.045 95c0-18.196 14.804-33 33-33h13.5V179h15v28.5h39v15h-67.5c-9.925 0-18 8.075-18 18s8.075 18 18 18h42c18.196 0 33 14.804 33 33s-14.804 33-33 33h-13.5V353h-15v-28.5h-39v-15h67.5c9.925 0 18-8.075 18-18s-8.075-18-18-18h-42c-18.196 0-33-14.804-33-33zM15.006 253.504l-15-.15a260.85 260.85 0 0 1 .615-15.429l14.964 1.044c-.336 4.8-.53 9.7-.58 14.536zm3.455 43.47c4.727 27.604 14.173 53.95 28.075 78.3L33.51 382.72C18.738 356.836 8.7 328.84 3.677 299.505zm-2.02-14.406L1.53 284.2a258.6 258.6 0 0 1-1.221-15.401l14.98-.738a243.69 243.69 0 0 0 1.151 14.506zm.592-58.068-14.874-1.94c7.975-61.1 37.91-117.345 84.295-158.373C133.247 22.795 193.458 0 255.993 0c35.797 0 70.433 7.25 102.944 21.546 25.852 11.37 49.344 26.73 70.056 45.764V36h15v57.5h-57.5v-15h32.51C374.47 37.436 317.21 15 255.993 15 135.35 15 32.62 105.064 17.032 224.5zm479.514 16.685 14.973-.908c.3 5.115.47 10.312.475 15.447l-15 .014a246.69 246.69 0 0 0-.448-14.553zm-3.503-28.88 14.754-2.7a256.9 256.9 0 0 1 2.323 15.28l-14.89 1.807a242.526 242.526 0 0 0-2.186-14.386zm3.534 57.978 14.975.875C503.662 406.21 391.407 512 255.993 512c-72.365 0-140.044-29.966-188.5-82.802V459h-15v-57.5h57.5v15h-33.78C121.978 467.833 186.7 497 255.993 497c127.48 0 233.157-99.586 240.584-226.718zm-6.588-72.2c-6.875-27.865-18.603-54.06-34.858-77.853l12.385-8.46c17.27 25.278 29.73 53.11 37.036 82.72z"/></svg>