<svg xmlns="http://www.w3.org/2000/svg" xmlns:xlink="http://www.w3.org/1999/xlink" width="512" height="512"><linearGradient id="a" gradientUnits="userSpaceOnUse"><stop offset="0" stop-color="#96d1f3"/><stop offset="1" stop-color="#ccfff4"/></linearGradient><linearGradient xlink:href="#a" id="b" x1="101" x2="101" y1="374" y2="504"/><linearGradient xlink:href="#a" id="c" x1="411" x2="411" y1="404" y2="504"/><linearGradient xlink:href="#a" id="d" x1="256" x2="256" y1="264" y2="324"/><linearGradient id="e" x1="256" x2="256" y1="8" y2="461" gradientUnits="userSpaceOnUse"><stop offset="0" stop-color="#a8abff"/><stop offset="1" stop-color="#fac8ff"/></linearGradient><linearGradient id="f" x1="256" x2="256" y1=".5" y2="511.5" gradientUnits="userSpaceOnUse"><stop offset="0" stop-color="#174fa3"/><stop offset="1" stop-color="#b044af"/></linearGradient><path fill="#fff" d="M171 324h170v180H171z"/><path fill="url(#b)" d="M31 374h140v130H31z"/><path fill="url(#c)" d="M341 404h140v100H341z"/><path fill="url(#d)" d="M206 264h100v60H206z"/><path fill="url(#e)" d="M336 8v100c0 39.053-28 71.55-65 78.575V264h-30v-77.425c-37-7.024-65-39.522-65-78.575V8zm-95.45 389.2L206 402.22l25 24.37-5.902 34.4L256 444.754 286.902 461 281 426.6l25-24.37-34.55-5.02L256 365.894z"/><path fill="url(#f)" d="M488.5 496.5v-100h-140v-80h-35v-60h-35v-63.938c28.633-7.625 51.535-29.44 60.686-57.423C375.25 131.523 403.5 101 403.5 64V30.5h-60V.5h-175v30h-60V64c0 37 28.25 67.523 64.314 71.14 9.152 27.983 32.053 49.798 60.686 57.423V256.5h-35v60h-35v50h-140v130H0v15h512v-15zM343.5 108V45.5h45V64c0 27.478-19.72 50.426-45.75 55.462A87.94 87.94 0 0 0 343.5 108zm-220-44V45.5h45V108a87.94 87.94 0 0 0 .751 11.462C143.22 114.426 123.5 91.478 123.5 64zm40 432.5h-125v-115h125zm20-388.5V15.5h145V108c0 39.977-32.523 72.5-72.5 72.5s-72.5-32.523-72.5-72.5zm80 87.175V256.5h-15v-61.325c2.473.21 4.973.325 7.5.325s5.027-.114 7.5-.325zm-50 76.325h85v45h-85zm120 225h-155v-165h155zm140 0h-125v-85h125zM248.5 148v-14.5H231v-15h34a8.51 8.51 0 0 0 8.5-8.5 8.51 8.51 0 0 0-8.5-8.5h-18c-12.958 0-23.5-10.542-23.5-23.5s10.542-23.5 23.5-23.5h1.5V40h15v14.5H281v15h-34a8.51 8.51 0 0 0-8.5 8.5 8.51 8.51 0 0 0 8.5 8.5h18c12.958 0 23.5 10.542 23.5 23.5s-10.542 23.5-23.5 23.5h-1.5V148zm-33.362 326.7L256 453.228l40.862 21.482-7.804-45.5 33.06-32.224-45.686-6.64L256 348.948l-20.432 41.397-45.686 6.64 33.06 32.224zm6.98-67.252 23.412-3.4L256 382.84l10.47 21.216 23.412 3.4-16.94 16.515 4 23.317-20.94-11-20.94 11 4-23.317zM123.5 199.5h-15v-15h15zm0 50h-15v-15h15zm25-40v15h-15v-15zm-50 15h-15v-15h15zm305 12h-15v-15h15zm-15 35h15v15h-15zm40-10h-15v-15h15zm-65 0v-15h15v15z"/></svg>